<svg version="1" xmlns="http://www.w3.org/2000/svg" width="933.333" height="933.333" viewBox="0 0 700.000000 700.000000"><path d="M299 16.7c-19.7 2.7-34 14.4-41.1 33.4-3.3 9.2-2.9 20.6 1.5 43.4.9 4.3 1.2 6.4 4.1 23 3.3 19.8 3.3 19.4 5.5 31.5 1.1 5.8 2.2 12.1 2.5 14 .3 1.9.8 4.2 1 5 .2.8.7 3.5 1 6 1 7 10.5 60.3 11.1 62.2.5 1.6-.2 1.8-5 1.8-13 0-25.8 5.2-34.7 14-5.4 5.3-10.9 14.3-12.3 20.2l-.6 2.6-5.7-2.8c-3.2-1.6-7.3-3.2-9.2-3.5-1.9-.3-3.8-.8-4.3-1.1-.5-.3-3.9-.5-7.6-.5-21.7.1-39.5 13.1-46.8 34.2-1.8 5.1-1.9 9.5-1.9 86.4 0 44.5.4 86.4.8 93 .4 6.6 1 15.6 1.2 20 .3 4.4.7 9.1 1 10.5.2 1.4.7 4.7 1 7.5.3 2.7.8 6.5 1.1 8.3.3 1.7.7 4.9 1 7 .6 4.8 4.1 22.6 5.5 27.7.6 2.2 1.3 4.8 1.5 5.8 1.2 6.3 6.8 23.6 13.6 41.7 10.7 28.4 12.2 33.6 13.3 46.5.8 9.4 2.1 13.1 5.3 15.3 5.5 3.7 13.4 2 16.3-3.4 2-3.8 1.8-13.3-.6-27.7-1.1-6.1-3.7-14.3-11.7-35.7-10.8-28.9-18-54.1-20.3-71-.3-2.5-.8-5.6-1-7-.8-4.4-1.3-8.3-1.9-14.5-.4-3.3-.8-7.6-1.1-9.5-.2-1.9-.7-8-1-13.4-.4-5.5-.6-10.2-.7-10.5-.3-2.8.3-3.1 3-1.7 7.4 3.8 22.4 6 29.7 4.3 6.5-1.6 8.5-2.3 13.4-4.6 10.5-4.8 22.2-18.4 24.5-28.4.8-3.2 1.4-3.3 5.8-.8 9.4 5.5 26.5 7 37.2 3.2 7.8-2.8 13.3-6 18.4-11.1 7.9-7.5 13.2-18.1 14.6-28.5.3-2.2.6-19.1.6-37.5.1-30.1.2-33.3 1.6-31.5 4.6 6.1 14.5 15.2 21.9 20 1.6 1.1 10.1 5.6 18.9 10l16 8 2.7 8.5c4.4 13.7 13.1 41.4 13.3 42.3 0 .5-3.5 2.1-8 3.6-25.2 8.6-46.1 29.4-62.5 62.2-11.8 23.6-12.7 32.9-3.6 37.5 6.9 3.6 13.8-1.1 17.6-12.2 3-9 13-28.1 18.9-36.4 6.4-9 17.6-19.8 25.3-24.3 7.4-4.3 17.3-7.5 24.4-7.8 7.3-.4 11.1-2.3 13.3-6.7 1.1-2 1.8-4.2 1.6-4.7-1.8-6.6-20.8-65.8-23.3-73l-1.8-5-16.9-8.5c-18.4-9.3-27-14.8-33.7-21.3-8.6-8.4-12.8-18.2-12.8-30.1 0-7.2 1.9-18.3 3.3-19.2.7-.5 47.2 17.4 60.3 23.1 1.7.8 5.5 2.3 8.6 3.4 6.6 2.5 16.3 8.2 20.2 11.9 6.1 5.8 10 13 26 48.2 17.4 38.4 17.3 38.2 18.3 44.4.3 2.1.8 4.8 1 6 1.3 6.1.1 38.8-2.1 57.6-.3 2.5-.8 6.7-1.1 9.5-.5 4.6-2.9 20-3.9 25.3-5.1 25-12.1 46.5-25.5 77.8-16.5 38.4-19.6 48-20.6 63.9-.8 10.4.6 14.4 5.6 17 3.6 1.9 6.3 1.9 9.9.1 4.1-2.2 6.1-5.9 6.6-12.4 1.4-16.8 3.6-23.3 23.3-69.9 9.9-23.2 20.8-58.8 22.8-73.8.3-2.8.8-5.2.9-5.5.2-.3.6-2.5 1-5s.8-4.7 1-5c.1-.3.6-3.9 1-8s.8-8.2 1-9c.3-1.8 1.5-12.5 2.1-19.5.2-2.8.6-13.1.9-23 .5-25.1-1.3-35.3-9.9-53.7-13.1-28.4-14.6-32.3-14.2-36.3.3-2.2.8-6.9 1.1-10.5.3-3.6.8-7.2 1-8 .2-.8.6-4.7 1-8.5.8-8.9 1.2-11.2 3.5-21 2.6-10.8 5.1-21.5 5.6-24.5.3-1.4 2-9 3.9-17 1.8-8 5-21.7 7-30.5s4.3-18.7 5-22c.8-3.3 3.9-17 7-30.5 3-13.5 6.2-27.2 7-30.5 1.6-6.7 10.1-44.3 11-49 3.3-16.7-4.7-35.2-19.8-45.3-15.7-10.5-37.4-9.3-53 3C453.2 59 445 69 445 70.6c0 .3-.6 2-1.4 3.7-.8 1.8-2.9 8.1-4.5 14.2-1.7 6-3.7 13.2-4.5 16-6.2 21.5-13.8 48.7-14 50.2-.2 1-1.3 4.9-2.5 8.8-1.1 3.8-4.8 16.9-8.1 29-3.4 12.1-7.6 27.2-9.4 33.5-1.8 6.3-4.8 16.9-6.7 23.4-3.5 12.6-3.8 12.8-5.3 2.9-.4-3-5.7-32.2-9.1-50.3-3.2-17-9.7-52.2-10-54.5-.3-1.7-1-5-1.5-7.5-.8-3.9-3.8-20-5.5-29.5-.2-1.7-1.8-10.4-3.5-19.5s-3.3-17.9-3.6-19.5c-.2-1.7-.7-3.7-.9-4.5-.2-.8-.7-3.4-1-5.7-1.6-11.5-7.3-23.5-14.5-30.4-10.7-10.4-26.7-16-40-14.2zm13.7 24.8c6.3 2.6 11.3 6.6 13.9 11.1 2.4 4.1 4.2 12.6 12.5 58.1.5 2.9 1.3 7.7 1.9 10.5.5 2.9 1.8 10.2 2.9 16.3 2.3 12.7 11.8 64.6 12.7 69 .3 1.6.7 3.9.9 5 .1 1.1.8 4.8 1.4 8.2.7 3.5 1.4 7.5 1.7 9 .2 1.6 1.3 7.3 2.4 12.8 1 5.5 2.1 11.7 2.4 13.7.3 2.1 1 5.6 1.5 7.7.5 2.2.7 4.2.4 4.4-.2.3-6.5-2-14-4.9-16.4-6.5-20.2-6.9-25-2.2-1.8 1.8-3.3 3.8-3.3 4.5 0 2.4-1.5 1.4-3.5-2.3-1.1-2-4.3-6.2-7.1-9.4-4.6-5.2-5.2-6.5-6.2-12.6-.6-3.8-1.3-8-1.6-9.4-.3-1.4-1-5.4-1.6-9-.5-3.6-1.2-7.6-1.5-9-.6-3.4-3.2-18-5.5-31.8-1.1-6.2-2.2-12.3-2.5-13.5-.2-1.2-.7-3.8-1-5.7-.2-1.9-.6-4.4-.9-5.5-.2-1.1-.7-4-1.1-6.5-.4-2.5-.9-5.4-1.1-6.5-.2-1.1-1.5-8.5-2.9-16.5s-2.8-15.7-3-17c-.6-3.1-1.3-7.1-2-11.3-.3-1.7-1.5-8.4-2.6-14.7-3.8-21.1-3.4-24.7 3.3-33.7 3.7-5.1 7.5-7.9 12.8-9.3 4.7-1.3 12-1 15.7.5zm179.5 29.1c8 2.6 13.8 9.7 15.2 18.6.5 3-1.5 13.1-7.9 40.8-2.9 12.3-13.5 58.6-14.1 61.5-.2 1.1-.6 2.9-.8 4-.5 2.5-8.2 36.1-10.1 44-.8 3.3-1.6 7.1-1.9 8.5-.4 2.5-2.1 9.5-5.6 24.5-1.1 4.4-2.1 9.3-2.4 11-.3 1.6-1.4 6.6-2.5 11s-2.5 10.8-3.2 14.2c-.6 3.5-1.5 6.3-2 6.3-.4 0-3.4-2.8-6.6-6.1-9.6-10.1-20.1-16.8-34.3-21.9-3.6-1.3-6.8-2.6-7.2-2.9-.7-.6 5.9-25 18.3-68.1 1.6-5.8 3.2-11.2 3.4-12.1.2-.9 2.8-10.4 5.8-21 3.1-10.7 10.6-37.4 16.7-59.4 12.4-44.4 13.7-47.4 22-51.7 5.7-3 10.9-3.3 17.2-1.2zM289.4 262.5c5.9 2.5 11.3 8.1 13.6 14.1 1.9 5.3 2 7.5 2 68.7v63.2l-2.4 5.1c-7.7 16.5-29.1 20-42.1 6.9-2.4-2.3-5.4-8.3-6.1-12-.4-2.2-.7-31.3-.7-64.6 0-47.2.3-61.7 1.3-65.4 3.8-13.7 20.9-21.6 34.4-16zm-74.1 29.4c5.8 2.6 9.5 6.5 12.4 12.9l2.5 5.4v63.4l.1 63.4-3.1 6.3c-8.2 16.5-29.8 19.1-42.2 5-2-2.3-4.2-5.9-4.8-8.1-.9-2.8-1.2-21.6-1.2-67.3v-63.4l2.4-5c6.1-13.1 20.8-18.6 33.9-12.6z"/></svg>