<?xml version="1.0" standalone="no"?>
<!DOCTYPE svg PUBLIC "-//W3C//DTD SVG 20010904//EN"
 "http://www.w3.org/TR/2001/REC-SVG-20010904/DTD/svg10.dtd">
<svg version="1.0" xmlns="http://www.w3.org/2000/svg"
 width="260.000000pt" height="260.000000pt" viewBox="0 0 260.000000 260.000000"
 preserveAspectRatio="xMidYMid meet">
<metadata>
Created by potrace 1.11, written by Peter Selinger 2001-2013
</metadata>
<g transform="translate(0.000000,260.000000) scale(0.100000,-0.100000)"
fill="#000000" stroke="none">
<path d="M1120 2588 c-147 -23 -322 -81 -435 -143 -218 -121 -413 -316 -532
-535 -55 -100 -117 -278 -130 -370 -3 -19 -9 -55 -13 -80 -9 -49 -6 -316 5
-365 21 -100 28 -128 51 -200 61 -192 163 -356 318 -510 251 -249 534 -372
876 -380 203 -5 352 21 527 91 195 79 353 194 518 379 115 129 244 405 271
580 3 22 10 60 14 85 9 48 6 306 -4 355 -4 17 -11 53 -16 80 -29 143 -104 317
-195 456 -64 96 -250 282 -344 343 -144 94 -314 167 -456 196 -27 5 -63 12
-80 16 -50 10 -316 12 -375 2z m535 -449 c50 -11 97 -22 106 -24 158 -33 236
-193 165 -339 -54 -110 -158 -148 -310 -112 -38 9 -73 13 -77 9 -3 -5 -15 -44
-25 -88 -10 -44 -19 -83 -20 -87 -1 -5 -2 -16 -3 -25 -3 -42 -15 -48 -76 -33
-53 13 -56 15 -52 39 5 29 54 246 97 426 16 66 36 153 45 193 16 67 19 73 39
68 11 -4 62 -16 111 -27z m-799 -276 l43 -36 -77 -86 c-42 -47 -87 -97 -99
-111 -13 -14 -23 -27 -22 -30 1 -5 108 -100 195 -175 l36 -30 46 51 c26 28 71
77 99 108 l53 59 45 -37 c25 -21 45 -40 45 -44 0 -4 -17 -25 -36 -47 -20 -22
-66 -73 -103 -114 -36 -41 -73 -82 -81 -91 -25 -28 -182 -201 -226 -249 l-42
-45 -40 34 c-22 19 -42 40 -45 45 -2 6 29 46 70 90 41 44 87 96 103 116 l29
35 -67 60 c-36 32 -86 78 -111 101 -25 24 -48 43 -51 43 -3 0 -37 -35 -75 -77
-39 -43 -86 -94 -105 -115 l-35 -38 -47 43 -46 42 46 51 c26 27 83 90 127 139
44 49 99 109 122 134 23 25 50 55 60 67 98 113 137 153 141 149 3 -3 25 -22
48 -42z m1068 -818 c63 -176 117 -326 118 -334 3 -15 -102 -56 -112 -44 -4 5
-42 106 -86 225 -43 120 -80 216 -82 213 -4 -3 -47 -177 -57 -230 -14 -70 -38
-155 -44 -155 -3 0 -56 37 -116 83 -61 45 -134 99 -163 121 l-53 38 26 -68
c15 -38 39 -105 55 -149 15 -44 42 -117 58 -163 l31 -83 -27 -10 c-15 -5 -40
-15 -55 -21 -16 -6 -31 -7 -36 -2 -4 5 -31 74 -60 154 -29 80 -56 154 -61 165
-18 42 -130 358 -128 361 2 1 26 11 54 22 l52 19 168 -128 c93 -71 174 -129
180 -129 6 0 11 6 11 13 0 6 15 75 33 152 17 77 34 150 36 162 15 77 28 96 79
113 35 12 52 14 56 6 4 -6 59 -155 123 -331z"/>
<path d="M1616 2012 c-8 -14 -38 -152 -40 -186 -1 -27 2 -30 54 -42 73 -17
105 -17 140 1 77 40 76 161 -2 198 -18 9 -45 18 -58 21 -14 2 -39 8 -56 11
-18 4 -34 3 -38 -3z"/>
</g>
</svg>
