<?xml version="1.0" encoding="UTF-8"?>
<svg width="14px" height="14px" viewBox="0 0 14 14" version="1.1" xmlns="http://www.w3.org/2000/svg" xmlns:xlink="http://www.w3.org/1999/xlink">
    <!-- Generator: Sketch 53.2 (72643) - https://sketchapp.com -->
    <title>Icons / cv-small</title>
    <desc>Created with Sketch.</desc>
    <g id="Assets" stroke="none" stroke-width="1" fill="none" fill-rule="evenodd">
        <g id="Icons-Export" transform="translate(-94.000000, -87.000000)" fill="#000000" fill-rule="nonzero">
            <g id="CV-Small" transform="translate(94.000000, 87.000000)">
                <path d="M4.2,2.35 C4.00670034,2.35 3.85,2.50670034 3.85,2.7 L3.85,11.3 C3.85,11.4932997 4.00670034,11.65 4.2,11.65 L9.8,11.65 C9.99329966,11.65 10.15,11.4932997 10.15,11.3 L10.15,2.7 C10.15,2.50670034 9.99329966,2.35 9.8,2.35 L4.2,2.35 Z M4.2,1.65 L9.8,1.65 C10.379899,1.65 10.85,2.12010101 10.85,2.7 L10.85,11.3 C10.85,11.879899 10.379899,12.35 9.8,12.35 L4.2,12.35 C3.62010101,12.35 3.15,11.879899 3.15,11.3 L3.15,2.7 C3.15,2.12010101 3.62010101,1.65 4.2,1.65 Z M5.29898653,4.38502085 C5.10568686,4.38502085 4.94898653,4.22832051 4.94898653,4.03502085 C4.94898653,3.84172118 5.10568686,3.68502085 5.29898653,3.68502085 L8.70101347,3.68502085 C8.89431314,3.68502085 9.05101347,3.84172118 9.05101347,4.03502085 C9.05101347,4.22832051 8.89431314,4.38502085 8.70101347,4.38502085 L5.29898653,4.38502085 Z M5.29898653,5.86583508 C5.10568686,5.86583508 4.94898653,5.70913474 4.94898653,5.51583508 C4.94898653,5.32253542 5.10568686,5.16583508 5.29898653,5.16583508 L8.70101347,5.16583508 C8.89431314,5.16583508 9.05101347,5.32253542 9.05101347,5.51583508 C9.05101347,5.70913474 8.89431314,5.86583508 8.70101347,5.86583508 L5.29898653,5.86583508 Z M5.29898653,7.35 C5.10568686,7.35 4.94898653,7.19329966 4.94898653,7 C4.94898653,6.80670034 5.10568686,6.65 5.29898653,6.65 L6.87203137,6.65 C7.06533104,6.65 7.22203137,6.80670034 7.22203137,7 C7.22203137,7.19329966 7.06533104,7.35 6.87203137,7.35 L5.29898653,7.35 Z" id="Combined-Shape"></path>
            </g>
        </g>
    </g>
</svg>