<?xml version="1.0" encoding="UTF-8"?>
<svg width="14px" height="14px" viewBox="0 0 14 14" version="1.1" xmlns="http://www.w3.org/2000/svg" xmlns:xlink="http://www.w3.org/1999/xlink">
    <!-- Generator: Sketch 53.2 (72643) - https://sketchapp.com -->
    <title>Icons/dribbble</title>
    <desc>Created with Sketch.</desc>
    <g id="Icons/dribbble" stroke="none" stroke-width="1" fill="none" fill-rule="evenodd">
        <path d="M4.11493874,10.0049354 C4.96587982,8.61008757 6.00453232,7.65693572 7.23109768,7.15670167 C7.25709853,7.14609766 7.2831481,7.13570032 7.30924631,7.12550958 C7.24796775,6.98828635 7.18455238,6.84960426 7.11899901,6.70946511 C7.07095162,6.60675 7.02305704,6.50578991 6.97531726,6.40658582 C5.5967567,6.8448306 4.2166442,6.98216655 2.83820824,6.81759323 C2.83560257,6.8780702 2.83428634,6.93888139 2.83428634,7 C2.83428634,8.18081871 3.32559319,9.24688656 4.11493874,10.0049354 L4.11493874,10.0049354 Z M4.66411704,10.4496763 C5.33029971,10.9016498 6.13431214,11.1657137 7,11.1657137 C7.53664101,11.1657137 8.04958154,11.0642398 8.52068053,10.8794332 C8.36806335,9.95276401 8.05656603,8.9156321 7.58542902,7.76920093 C7.55535566,7.78077864 7.52536012,7.79266832 7.49544218,7.80486985 C6.39459515,8.25383179 5.45074904,9.13147503 4.66411704,10.4496763 L4.66411704,10.4496763 Z M11.1657137,7.0132515 L11.1657137,7 C11.1657137,5.96207517 10.7861207,5.01280904 10.1581875,4.28345432 C9.65091823,5.0773982 8.80769419,5.70447877 7.63843414,6.17048219 C7.6765682,6.25023452 7.71477587,6.33103003 7.75305804,6.41286916 C7.83171772,6.58102684 7.90744398,6.74728169 7.98023497,6.91163653 C8.97826536,6.66287302 10.0419233,6.69765375 11.1657137,7.0132515 L11.1657137,7.0132515 Z M11.1030322,7.72393462 C10.0874775,7.41915487 9.14106716,7.36714676 8.25829011,7.56518548 C8.69988366,8.64898874 9.0053989,9.64495628 9.17425914,10.5539715 C10.1726817,9.94184837 10.8933092,8.92079965 11.1030322,7.72393462 L11.1030322,7.72393462 Z M2.92672517,6.12318801 C4.16864561,6.27067357 5.41196868,6.15385326 6.65965449,5.77180981 C6.11283206,4.70935867 5.58751276,3.88446301 5.08677925,3.29865233 C3.99853062,3.86230921 3.19051899,4.89181471 2.92672517,6.12318801 L2.92672517,6.12318801 Z M9.65011906,3.78581207 C8.92998897,3.19138107 8.00669646,2.83428634 7,2.83428634 C6.5700507,2.83428634 6.15531471,2.89942231 5.76512163,3.02036466 C6.27340979,3.65242563 6.79343771,4.49208751 7.3277331,5.54060448 C8.4619595,5.09764661 9.229754,4.50905242 9.64347442,3.78203086 L9.65011906,3.78581207 L9.65011906,3.78581207 Z M7,11.8657137 C4.31274055,11.8657137 2.13428634,9.68725945 2.13428634,7 C2.13428634,4.31274055 4.31274055,2.13428634 7,2.13428634 C9.68725945,2.13428634 11.8657137,4.31274055 11.8657137,7 C11.8657137,9.68725945 9.68725945,11.8657137 7,11.8657137 Z" id="Shape" fill="#000000" fill-rule="nonzero"></path>
    </g>
</svg>