<?xml version="1.0" encoding="UTF-8"?>
<svg width="24px" height="24px" viewBox="0 0 24 24" version="1.1" xmlns="http://www.w3.org/2000/svg" xmlns:xlink="http://www.w3.org/1999/xlink">
    <!-- Generator: Sketch 53.2 (72643) - https://sketchapp.com -->
    <title>Icons / hand-with-card</title>
    <desc>Created with Sketch.</desc>
    <g id="Assets" stroke="none" stroke-width="1" fill="none" fill-rule="evenodd">
        <g id="Icons-Export" transform="translate(-56.000000, -42.000000)" fill="#FFFFFF" fill-rule="nonzero">
            <g id="Hand-with-Card" transform="translate(56.000000, 42.000000)">
                <path d="M20.1141741,10.9410286 C19.1375038,10.0484099 18.2774169,9.19824793 17.7084091,8.63550451 C17.3566358,8.2876174 17.1242277,8.05783693 16.9939881,7.94410461 L16.9398692,7.89675903 C16.6950694,7.68241734 16.4436944,7.46395864 16.1240384,7.3618054 L16.1240384,1.38596943 C16.1240384,1.17265699 15.9540948,1 15.7446999,1 L2.37933854,1 C2.16969077,1 2,1.17265699 2,1.38596943 L2,10.1881309 C2,10.4014433 2.16969077,10.5741003 2.37933854,10.5741003 L9.64114272,10.5741003 C9.63026835,10.590311 9.61812952,10.6090948 9.60750804,10.6250482 C9.14623237,11.3123311 8.66902448,12.0230295 9.41935612,12.5965801 C9.66896088,12.787249 9.93702678,12.9009813 10.2121737,12.9413794 C10.1674117,13.0255208 10.1226498,13.1096621 10.0758647,13.1971485 C9.57716095,14.1286214 9.25067691,14.7721611 9.25472319,15.2098504 C9.2577579,15.5073042 9.51823703,15.841811 9.90288632,16.0417432 C10.0154234,16.1004105 10.1676646,16.1577913 10.3487356,16.1943298 C10.2149555,16.5589422 10.1082349,16.9783623 10.3333091,17.3710219 C10.5343585,17.7219967 10.9463202,17.9440578 11.6149676,18.0644803 C11.8079245,19.3960748 12.3521488,20.6589668 13.498257,21.5796325 C13.5655264,21.8400332 13.726113,22.4251629 13.8980799,22.7833425 C13.9638319,22.920233 14.0986235,23 14.2392316,23 C14.2951209,23 14.3517688,22.9873917 14.4053819,22.9608884 C14.5935338,22.8674838 14.6716776,22.6361595 14.5796248,22.4447187 C14.5290463,22.3392203 14.4769505,22.1982128 14.4271307,22.0497433 C14.5161488,22.0224681 14.5958099,21.9632861 14.6461355,21.8747705 C14.7508329,21.6902771 14.6888743,21.4540638 14.5072976,21.3475362 C12.0413441,19.8978351 12.0704268,16.8360683 12.5294264,14.5228248 C12.8751302,12.7795296 12.7190957,11.0810068 12.0653689,9.47408742 C11.9174269,9.1102469 11.7024684,8.27243593 11.9485326,7.70480356 C12.053483,7.46292939 12.2330365,7.29799179 12.4973091,7.20047018 C12.8450361,7.07232833 13.1328276,7.15646967 13.3133927,7.24910233 C13.6279908,7.41069486 13.8894815,7.73876887 13.9959492,8.10466789 C14.2341738,8.92498158 14.3917257,9.62487281 14.5411851,10.9711342 C14.6868511,12.2849741 15.3696605,13.3304366 16.6285587,14.1672183 C16.8033073,14.2835238 17.0384972,14.2338624 17.1535632,14.0550299 C17.2681235,13.876712 17.2188095,13.637411 17.0433022,13.5208482 C16.7919272,13.3538521 16.571405,13.1788793 16.3756663,12.9964444 C16.3018218,12.2420028 16.5658414,11.5660417 16.5683703,11.5598662 C16.6204661,11.4306951 16.5999818,11.2824828 16.5145042,11.1731248 C16.3642862,10.9809121 16.1647541,10.7398098 15.9457493,10.5136317 C16.052217,10.4451865 16.1232797,10.325536 16.1232797,10.1878735 L16.1232797,8.22277454 C16.2178615,8.28838934 16.32003,8.3730453 16.4442002,8.48163136 L16.4993307,8.5300062 C16.6116149,8.62804243 16.8622312,8.87557749 17.1791054,9.18898467 C17.7524123,9.7558451 18.6185687,10.6126972 19.606872,11.5156084 C20.8913123,12.6892127 19.9035148,15.837694 19.3726937,17.529012 L19.2771004,17.8344425 C18.6845736,19.7437046 18.6165455,21.2242833 19.0560725,22.6346156 C19.1071567,22.7990386 19.2566161,22.9040223 19.4177085,22.9040223 C19.4553895,22.9040223 19.4943349,22.8983614 19.5322688,22.8860104 C19.7320538,22.8216821 19.8428206,22.60451 19.7793446,22.4014901 C19.3898904,21.1519784 19.4581713,19.8149803 20.0008783,18.0670534 L20.0954601,17.7636814 C20.7195984,15.7756816 21.763791,12.4481105 20.1141741,10.9410286 Z M10.2339224,11.0606791 C10.3322975,10.9145253 10.4407884,10.7495877 10.552061,10.5743576 L11.6384866,10.5743576 C11.6872948,10.7434122 11.7305394,10.9134961 11.7677146,11.0843519 C11.4392074,11.672312 11.0153598,12.0747494 10.6142725,12.1673821 C10.3591041,12.2263067 10.117339,12.1645516 9.87481526,11.9795436 C9.74761041,11.882022 9.7046187,11.8493433 10.2339224,11.0606791 Z M10.0159292,15.1632768 C10.0495639,14.8604194 10.4638016,14.0864221 10.742489,13.5663926 C10.8901781,13.2905531 11.0297747,13.0286085 11.1463581,12.7893075 C11.4225165,12.6575632 11.6850188,12.4522275 11.9257723,12.1815343 C11.9766037,12.8991801 11.9331062,13.6299489 11.7861757,14.3702382 C11.7381262,14.6123697 11.6946287,14.8622206 11.6574535,15.1174751 C11.0861697,15.4900642 10.6681386,15.4928947 10.4144876,15.4205897 C10.1891605,15.3562615 10.0571507,15.2258038 10.0159292,15.1632768 Z M10.989059,16.9824793 C10.909145,16.8430157 11.0252226,16.5471058 11.1273911,16.2861905 C11.1423118,16.2481082 11.1557151,16.2110551 11.1701299,16.1734874 C11.2927827,16.1441537 11.4220107,16.1014398 11.5570553,16.0443163 C11.5284784,16.4462391 11.520133,16.8538229 11.5390999,17.2611493 C11.1410473,17.1623411 11.0214292,17.0396028 10.989059,16.9824793 Z M13.6560619,6.56053287 C13.2064192,6.32946584 12.7163138,6.29961754 12.2393588,6.47510497 C11.7826352,6.64313033 11.442495,6.96091182 11.2548489,7.39371221 C10.8251848,8.38436707 11.3082092,9.630791 11.3648571,9.76974 C11.3694091,9.78054714 11.3724438,9.7916116 11.376743,9.80241874 L2.75892998,9.80241874 L2.75892998,1.77193885 L15.3656142,1.77193885 L15.3656142,9.80216143 L15.1534375,9.80216143 C15.0333137,9.03614077 14.8970047,8.48085943 14.7242792,7.88595188 C14.557876,7.31471713 14.1588119,6.81887507 13.6560619,6.56053287 Z M15.6579578,12.0757787 C15.4768869,11.7350963 15.3618208,11.3661095 15.3084606,10.9629002 C15.4614604,11.1139429 15.6296339,11.2971497 15.7904734,11.491421 C15.7477346,11.6334577 15.6958917,11.8354484 15.6579578,12.0757787 Z" id="Shape"></path>
            </g>
        </g>
    </g>
</svg>