<?xml version="1.0" encoding="UTF-8"?>
<svg width="14px" height="14px" viewBox="0 0 14 14" version="1.1" xmlns="http://www.w3.org/2000/svg" xmlns:xlink="http://www.w3.org/1999/xlink">
    <!-- Generator: Sketch 53.2 (72643) - https://sketchapp.com -->
    <title>Icons/linkedin</title>
    <desc>Created with Sketch.</desc>
    <g id="Icons/linkedin" stroke="none" stroke-width="1" fill="none" fill-rule="evenodd">
        <path d="M4.63709146,11.2771031 L2.86325049,11.2771031 L2.86325049,5.56603225 L4.63709146,5.56603225 L4.63709146,11.2771031 Z M3.74921067,4.78697355 C3.18210889,4.78697355 2.72194588,4.31726343 2.72194588,3.75016165 C2.72194588,3.18305987 3.18210889,2.72289686 3.74921067,2.72289686 C4.31631245,2.72289686 4.77647546,3.18305987 4.77647546,3.75016165 C4.77647546,4.31726343 4.31631245,4.78697355 3.74921067,4.78697355 Z M11.2780541,11.2771031 L9.50611512,11.2771031 L9.50611512,8.49699356 C9.50611512,7.83442073 9.49274545,6.98472836 8.58386849,6.98472836 C7.66162185,6.98472836 7.52031724,7.70458382 7.52031724,8.44925803 L7.52031724,11.2771031 L5.74837823,11.2771031 L5.74837823,5.56603225 L7.44966493,5.56603225 L7.44966493,6.34507231 L7.47450232,6.34507231 C7.71125934,5.89635836 8.28981019,5.42282567 9.15287223,5.42282567 C10.947728,5.42282567 11.2780541,6.60474611 11.2780541,8.13992809 L11.2780541,11.2771031 Z" id="" fill="#14181E" fill-rule="nonzero"></path>
    </g>
</svg>