<?xml version="1.0" encoding="UTF-8"?>
<svg width="14px" height="14px" viewBox="0 0 14 14" version="1.1" xmlns="http://www.w3.org/2000/svg" xmlns:xlink="http://www.w3.org/1999/xlink">
    <!-- Generator: Sketch 53.2 (72643) - https://sketchapp.com -->
    <title>Icons/mail</title>
    <desc>Created with Sketch.</desc>
    <g id="Icons/mail" stroke="none" stroke-width="1" fill="none" fill-rule="evenodd">
        <path d="M2.85342658,4.15083113 L6.35311343,6.84956904 C6.66091248,7.08692427 7.09050283,7.0852551 7.39644814,6.84551518 L10.833293,4.15239031 C10.8100663,3.98161182 10.6636549,3.85 10.4865039,3.85 L3.2,3.85 C3.02338851,3.85 2.87732967,3.98081141 2.85342658,4.15083113 L2.85342658,4.15083113 Z M2.85,5.03214555 L2.85,9.17806649 C2.85,9.37136615 3.00670034,9.52806649 3.2,9.52806649 L10.4865039,9.52806649 C10.6798036,9.52806649 10.8365039,9.37136615 10.8365039,9.17806649 L10.8365039,5.03918694 L7.82820389,7.39650245 C7.27030362,7.83367525 6.48693298,7.83671903 5.92565235,7.40389478 L2.85,5.03214555 Z M3.2,3.15 L10.4865039,3.15 C11.0664029,3.15 11.5365039,3.62010101 11.5365039,4.2 L11.5365039,9.17806649 C11.5365039,9.75796548 11.0664029,10.2280665 10.4865039,10.2280665 L3.2,10.2280665 C2.62010101,10.2280665 2.15,9.75796548 2.15,9.17806649 L2.15,4.2 C2.15,3.62010101 2.62010101,3.15 3.2,3.15 Z" id="Shape" fill="#000000" fill-rule="nonzero"></path>
    </g>
</svg>