<?xml version="1.0" encoding="UTF-8"?>
<svg width="24px" height="24px" viewBox="0 0 24 24" version="1.1" xmlns="http://www.w3.org/2000/svg" xmlns:xlink="http://www.w3.org/1999/xlink">
    <!-- Generator: Sketch 53.2 (72643) - https://sketchapp.com -->
    <title>Icons / mail-large</title>
    <desc>Created with Sketch.</desc>
    <g id="Assets" stroke="none" stroke-width="1" fill="none" fill-rule="evenodd">
        <g id="Icons-Export" transform="translate(-22.000000, -42.000000)" fill="#FFFFFF" fill-rule="nonzero">
            <g id="Icon-Mail---ready-for-export" transform="translate(22.000000, 42.000000)">
                <path d="M3.98159728,6.42648699 L11.5478538,12.1791408 C11.8538207,12.4117687 12.2778233,12.4101271 12.5819798,12.1751371 L20.0204951,6.42817307 C19.9603101,6.37929345 19.883576,6.35 19.8,6.35 L4.2,6.35 C4.11738949,6.35 4.04146367,6.37862058 3.98159728,6.42648699 Z M3.85,7.20577961 L3.85,17.3 C3.85,17.4932997 4.00670034,17.65 4.2,17.65 L19.8,17.65 C19.9932997,17.65 20.15,17.4932997 20.15,17.3 L20.15,7.21269878 L13.0099474,12.7290719 C12.455309,13.157583 11.6821279,13.1605765 11.1241882,12.7363728 L3.85,7.20577961 Z M4.2,5.65 L19.8,5.65 C20.379899,5.65 20.85,6.12010101 20.85,6.7 L20.85,17.3 C20.85,17.879899 20.379899,18.35 19.8,18.35 L4.2,18.35 C3.62010101,18.35 3.15,17.879899 3.15,17.3 L3.15,6.7 C3.15,6.12010101 3.62010101,5.65 4.2,5.65 Z" id="Icon"></path>
            </g>
        </g>
    </g>
</svg>